<svg width="292" height="292" viewBox="0 0 292 292" fill="none" xmlns="http://www.w3.org/2000/svg">
<rect x="59" y="23" width="173" height="245" fill="white"/>
<path d="M67 49.7857H70.2143V53H67V49.7857ZM75.0483 41.75H76.6554V40.1429H81.4768V41.75H83.084V53H79.8697V43.3571H75.0483V53H71.834V40.1429H75.0483V41.75ZM84.6953 41.75H86.3025V38.5357H87.9096V36.9286H92.731V40.1429H89.5167V41.75H92.731V44.9643H89.5167V53H86.3025V44.9643H84.6953V41.75ZM94.334 41.75H95.9411V40.1429H103.977V41.75H105.584V51.3929H103.977V53H95.9411V51.3929H94.334V41.75ZM102.37 43.3571H97.5483V49.7857H102.37V43.3571Z" fill="black"/>
<path d="M68.0714 67.9286H69.6786V69H67V63.6429H68.0714V67.9286ZM70.2129 65.25H70.7486V64.7143H73.4272V65.25H73.9629V68.4643H73.4272V69H70.7486V68.4643H70.2129V65.25ZM72.8915 65.7857H71.2843V67.9286H72.8915V65.7857ZM76.6429 65.7857H76.1071V66.3214H75.5714V69H74.5V64.7143H75.5714V65.25H76.1071V64.7143H77.1786V65.25H77.7143V65.7857H77.1786V66.3214H76.6429V65.7857ZM78.25 65.25H78.7857V64.7143H81.4643V65.25H82V67.3929H79.3214V67.9286H82V68.4643H81.4643V69H78.7857V68.4643H78.25V65.25ZM79.3214 66.3214H80.9286V65.7857H79.3214V66.3214ZM83.6085 65.25H84.1443V64.7143H85.2157V65.25H86.2871V64.7143H87.3585V65.25H87.8943V69H86.8228V65.7857H85.7514V69H84.68V65.7857H83.6085V69H82.5371V64.7143H83.6085V65.25ZM90.5645 63.6429H91.6359V64.7143H90.5645V63.6429ZM90.5645 65.25H91.6359V69H90.5645V65.25ZM93.2472 67.9286H94.8544V65.7857H93.2472V67.9286ZM93.2472 65.25H93.7829V64.7143H95.3901V65.25H95.9258V68.4643H95.3901V69H93.2472V70.0714H92.1758V64.7143H93.2472V65.25ZM96.9986 68.4643H96.4629V67.9286H98.6057V67.3929H96.9986V66.8571H96.4629V65.25H96.9986V64.7143H99.1415V65.25H99.6772V65.7857H97.5343V66.3214H99.1415V66.8571H99.6772V68.4643H99.1415V69H96.9986V68.4643ZM102.356 69H100.749V68.4643H100.213V64.7143H101.284V67.9286H102.891V64.7143H103.963V69H102.891V68.4643H102.356V69ZM105.571 65.25H106.107V64.7143H107.179V65.25H108.25V64.7143H109.321V65.25H109.857V69H108.786V65.7857H107.714V69H106.643V65.7857H105.571V69H104.5V64.7143H105.571V65.25ZM115.206 64.7143V63.6429H116.277V69H115.206V68.4643H114.67V69H113.063V68.4643H112.527V65.25H113.063V64.7143H115.206ZM115.206 67.9286V65.7857H113.599V67.9286H115.206ZM116.814 65.25H117.35V64.7143H120.029V65.25H120.564V68.4643H120.029V69H117.35V68.4643H116.814V65.25ZM119.493 65.7857H117.886V67.9286H119.493V65.7857ZM121.102 63.6429H122.173V69H121.102V63.6429ZM122.713 65.25H123.249V64.7143H125.927V65.25H126.463V68.4643H125.927V69H123.249V68.4643H122.713V65.25ZM125.391 65.7857H123.784V67.9286H125.391V65.7857ZM129.143 65.7857H128.607V66.3214H128.071V69H127V64.7143H128.071V65.25H128.607V64.7143H129.679V65.25H130.214V65.7857H129.679V66.3214H129.143V65.7857ZM133.424 68.4643H132.889V67.9286H135.032V67.3929H133.424V66.8571H132.889V65.25H133.424V64.7143H135.567V65.25H136.103V65.7857H133.96V66.3214H135.567V66.8571H136.103V68.4643H135.567V69H133.424V68.4643ZM136.639 63.6429H137.71V64.7143H136.639V63.6429ZM136.639 65.25H137.71V69H136.639V65.25ZM138.25 65.25H138.786V64.1786H139.321V63.6429H139.857V65.25H140.929V66.3214H139.857V67.9286H140.929V69H139.321V68.4643H138.786V66.3214H138.25V65.25ZM144.137 68.4643H143.602V66.8571H144.137V66.3214H146.28V65.7857H143.602V65.25H144.137V64.7143H146.816V65.25H147.352V69H146.28V68.4643H145.744V69H144.137V68.4643ZM144.673 67.9286H146.28V67.3929H144.673V67.9286ZM148.96 65.25H149.496V64.7143H150.567V65.25H151.639V64.7143H152.71V65.25H153.246V69H152.174V65.7857H151.103V69H150.032V65.7857H148.96V69H147.889V64.7143H148.96V65.25ZM153.777 65.25H154.313V64.7143H156.992V65.25H157.527V67.3929H154.849V67.9286H157.527V68.4643H156.992V69H154.313V68.4643H153.777V65.25ZM154.849 66.3214H156.456V65.7857H154.849V66.3214ZM158.064 65.25H158.6V64.1786H159.136V63.6429H159.672V65.25H160.743V66.3214H159.672V67.9286H160.743V69H159.136V68.4643H158.6V66.3214H158.064V65.25ZM161.813 69H161.277V67.9286H162.349V69.5357H161.813V69ZM161.277 69.5357H161.813V70.0714H161.277V69.5357ZM167.706 67.3929H168.777V68.4643H168.242V69H165.563V68.4643H165.027V65.25H165.563V64.7143H168.242V65.25H168.777V66.3214H167.706V65.7857H166.099V67.9286H167.706V67.3929ZM169.314 65.25H169.85V64.7143H172.529V65.25H173.064V68.4643H172.529V69H169.85V68.4643H169.314V65.25ZM171.993 65.7857H170.386V67.9286H171.993V65.7857ZM174.673 65.25H175.209V64.7143H176.816V65.25H177.352V69H176.28V65.7857H174.673V69H173.602V64.7143H174.673V65.25ZM178.424 68.4643H177.889V67.9286H180.032V67.3929H178.424V66.8571H177.889V65.25H178.424V64.7143H180.567V65.25H181.103V65.7857H178.96V66.3214H180.567V66.8571H181.103V68.4643H180.567V69H178.424V68.4643ZM181.639 65.25H182.174V64.7143H184.853V65.25H185.389V67.3929H182.71V67.9286H185.389V68.4643H184.853V69H182.174V68.4643H181.639V65.25ZM182.71 66.3214H184.317V65.7857H182.71V66.3214ZM188.604 67.3929H189.676V68.4643H189.14V69H186.461V68.4643H185.926V65.25H186.461V64.7143H189.14V65.25H189.676V66.3214H188.604V65.7857H186.997V67.9286H188.604V67.3929ZM190.213 65.25H190.749V64.1786H191.284V63.6429H191.82V65.25H192.891V66.3214H191.82V67.9286H192.891V69H191.284V68.4643H190.749V66.3214H190.213V65.25ZM193.426 65.25H193.961V64.7143H196.64V65.25H197.176V67.3929H194.497V67.9286H197.176V68.4643H196.64V69H193.961V68.4643H193.426V65.25ZM194.497 66.3214H196.104V65.7857H194.497V66.3214ZM197.713 65.25H198.249V64.1786H198.784V63.6429H199.32V65.25H200.391V66.3214H199.32V67.9286H200.391V69H198.784V68.4643H198.249V66.3214H197.713V65.25ZM203.069 69H201.461V68.4643H200.926V64.7143H201.997V67.9286H203.604V64.7143H204.676V69H203.604V68.4643H203.069V69ZM207.356 65.7857H206.82V66.3214H206.284V69H205.213V64.7143H206.284V65.25H206.82V64.7143H207.891V65.25H208.427V65.7857H207.891V66.3214H207.356V65.7857ZM67.5357 79.4643H67V77.8571H67.5357V77.3214H69.6786V76.7857H67V76.25H67.5357V75.7143H70.2143V76.25H70.75V80H69.6786V79.4643H69.1429V80H67.5357V79.4643ZM68.0714 78.9286H69.6786V78.3929H68.0714V78.9286ZM73.9657 75.7143V74.6429H75.0371V80H73.9657V79.4643H73.43V80H71.8228V79.4643H71.2871V76.25H71.8228V75.7143H73.9657ZM73.9657 78.9286V76.7857H72.3585V78.9286H73.9657ZM75.5742 74.6429H76.6456V75.7143H75.5742V74.6429ZM75.5742 76.25H76.6456V80H75.5742V76.25ZM78.257 78.9286H79.8641V76.7857H78.257V78.9286ZM78.257 76.25H78.7927V75.7143H80.3998V76.25H80.9355V79.4643H80.3998V80H78.257V81.0714H77.1855V75.7143H78.257V76.25ZM81.4727 74.6429H82.5441V75.7143H81.4727V74.6429ZM81.4727 76.25H82.5441V80H81.4727V76.25ZM83.6197 79.4643H83.084V78.9286H85.2268V78.3929H83.6197V77.8571H83.084V76.25H83.6197V75.7143H85.7626V76.25H86.2983V76.7857H84.1554V77.3214H85.7626V77.8571H86.2983V79.4643H85.7626V80H83.6197V79.4643ZM89.5126 78.3929H90.584V79.4643H90.0483V80H87.3697V79.4643H86.834V76.25H87.3697V75.7143H90.0483V76.25H90.584V77.3214H89.5126V76.7857H87.9054V78.9286H89.5126V78.3929ZM91.1211 74.6429H92.1925V75.7143H91.1211V74.6429ZM91.1211 76.25H92.1925V80H91.1211V76.25ZM93.8039 76.25H94.3396V75.7143H95.9467V76.25H96.4824V80H95.411V76.7857H93.8039V80H92.7324V75.7143H93.8039V76.25ZM97.0195 80H99.6981V78.9286H99.1624V79.4643H97.5552V78.9286H97.0195V76.25H97.5552V75.7143H100.77V80.5357H100.234V81.0714H97.5552V80.5357H97.0195V80ZM98.091 78.3929H99.6981V76.7857H98.091V78.3929ZM103.445 76.25H103.981V75.7143H106.66V76.25H107.195V78.3929H104.517V78.9286H107.195V79.4643H106.66V80H103.981V79.4643H103.445V76.25ZM104.517 77.3214H106.124V76.7857H104.517V77.3214ZM107.732 74.6429H108.804V80H107.732V74.6429ZM109.344 74.6429H110.415V75.7143H109.344V74.6429ZM109.344 76.25H110.415V80H109.344V76.25ZM110.955 76.25H111.491V75.1786H112.027V74.6429H112.562V76.25H113.634V77.3214H112.562V78.9286H113.634V80H112.027V79.4643H111.491V77.3214H110.955V76.25ZM114.168 78.9286H115.239V80H114.168V78.9286ZM117.918 74.6429H121.132V75.1786H121.668V77.8571H121.132V78.3929H118.989V80H117.918V74.6429ZM120.597 75.7143H118.989V77.3214H120.597V75.7143ZM122.205 76.25H122.741V75.7143H125.419V76.25H125.955V78.3929H123.277V78.9286H125.955V79.4643H125.419V80H122.741V79.4643H122.205V76.25ZM123.277 77.3214H124.884V76.7857H123.277V77.3214ZM126.492 74.6429H127.564V80H126.492V74.6429ZM128.104 74.6429H129.175V80H128.104V74.6429ZM129.715 76.25H130.251V75.7143H132.929V76.25H133.465V78.3929H130.786V78.9286H133.465V79.4643H132.929V80H130.251V79.4643H129.715V76.25ZM130.786 77.3214H132.393V76.7857H130.786V77.3214ZM135.073 76.25H135.609V75.7143H137.216V76.25H137.752V80H136.681V76.7857H135.073V80H134.002V75.7143H135.073V76.25ZM138.289 76.25H138.825V75.1786H139.36V74.6429H139.896V76.25H140.968V77.3214H139.896V78.9286H140.968V80H139.36V79.4643H138.825V77.3214H138.289V76.25ZM141.502 76.25H142.038V75.7143H144.716V76.25H145.252V78.3929H142.573V78.9286H145.252V79.4643H144.716V80H142.038V79.4643H141.502V76.25ZM142.573 77.3214H144.181V76.7857H142.573V77.3214ZM146.325 79.4643H145.789V78.9286H147.932V78.3929H146.325V77.8571H145.789V76.25H146.325V75.7143H148.468V76.25H149.003V76.7857H146.86V77.3214H148.468V77.8571H149.003V79.4643H148.468V80H146.325V79.4643ZM153.289 75.7143V81.0714H152.218V79.4643H151.682V80H150.075V79.4643H149.539V76.25H150.075V75.7143H153.289ZM152.218 78.9286V76.7857H150.61V78.9286H152.218ZM155.969 80H154.362V79.4643H153.826V75.7143H154.898V78.9286H156.505V75.7143H157.576V80H156.505V79.4643H155.969V80ZM158.113 76.25H158.649V75.7143H161.328V76.25H161.863V78.3929H159.185V78.9286H161.863V79.4643H161.328V80H158.649V79.4643H158.113V76.25ZM159.185 77.3214H160.792V76.7857H159.185V77.3214ZM164.539 74.6429H165.61V80H164.539V74.6429ZM168.293 80H166.686V79.4643H166.15V75.7143H167.222V78.9286H168.829V75.7143H169.9V80H168.829V79.4643H168.293V80ZM173.116 78.3929H174.188V79.4643H173.652V80H170.973V79.4643H170.438V76.25H170.973V75.7143H173.652V76.25H174.188V77.3214H173.116V76.7857H171.509V78.9286H173.116V78.3929ZM174.725 76.25H175.26V75.1786H175.796V74.6429H176.332V76.25H177.403V77.3214H176.332V78.9286H177.403V80H175.796V79.4643H175.26V77.3214H174.725V76.25ZM180.08 80H178.473V79.4643H177.938V75.7143H179.009V78.9286H180.616V75.7143H181.688V80H180.616V79.4643H180.08V80ZM182.76 79.4643H182.225V78.9286H184.367V78.3929H182.76V77.8571H182.225V76.25H182.76V75.7143H184.903V76.25H185.439V76.7857H183.296V77.3214H184.903V77.8571H185.439V79.4643H184.903V80H182.76V79.4643ZM188.113 76.25H188.649V75.7143H191.328V76.25H191.863V78.3929H189.185V78.9286H191.863V79.4643H191.328V80H188.649V79.4643H188.113V76.25ZM189.185 77.3214H190.792V76.7857H189.185V77.3214ZM192.4 78.3929H192.936V77.8571H193.472V77.3214H192.936V76.7857H192.4V75.7143H193.472V76.25H194.008V76.7857H194.543V76.25H195.079V75.7143H196.15V76.7857H195.615V77.3214H195.079V77.8571H195.615V78.3929H196.15V80H195.079V78.9286H194.543V78.3929H194.008V78.9286H193.472V80H192.4V78.3929ZM199.362 79.4643H198.826V78.9286H200.969V78.3929H199.362V77.8571H198.826V76.25H199.362V75.7143H201.505V76.25H202.04V76.7857H199.898V77.3214H201.505V77.8571H202.04V79.4643H201.505V80H199.362V79.4643ZM202.576 76.25H203.112V75.7143H205.79V76.25H206.326V78.3929H203.648V78.9286H206.326V79.4643H205.79V80H203.112V79.4643H202.576V76.25ZM203.648 77.3214H205.255V76.7857H203.648V77.3214ZM209.542 75.7143V74.6429H210.613V80H209.542V79.4643H209.006V80H207.399V79.4643H206.863V76.25H207.399V75.7143H209.542ZM209.542 78.9286V76.7857H207.935V78.9286H209.542ZM67 85.6429H68.0714V91H67V85.6429ZM68.6113 85.6429H69.6828V86.7143H68.6113V85.6429ZM68.6113 87.25H69.6828V91H68.6113V87.25ZM70.2227 91H72.9012V89.9286H72.3655V90.4643H70.7584V89.9286H70.2227V87.25H70.7584V86.7143H73.9727V91.5357H73.4369V92.0714H70.7584V91.5357H70.2227V91ZM71.2941 89.3929H72.9012V87.7857H71.2941V89.3929ZM76.6526 91H75.0455V90.4643H74.5098V86.7143H75.5812V89.9286H77.1883V86.7143H78.2598V91H77.1883V90.4643H76.6526V91ZM78.7969 85.6429H79.8683V91H78.7969V85.6429ZM80.9439 90.4643H80.4082V88.8571H80.9439V88.3214H83.0868V87.7857H80.4082V87.25H80.9439V86.7143H83.6225V87.25H84.1582V91H83.0868V90.4643H82.5511V91H80.9439V90.4643ZM81.4796 89.9286H83.0868V89.3929H81.4796V89.9286ZM86.834 85.6429H87.9054V86.7143H86.834V85.6429ZM86.834 87.25H87.9054V91H86.834V87.25ZM89.5167 87.25H90.0525V86.7143H91.1239V87.25H92.1953V86.7143H93.2667V87.25H93.8025V91H92.731V87.7857H91.6596V91H90.5882V87.7857H89.5167V91H88.4453V86.7143H89.5167V87.25ZM95.4054 89.9286H97.0126V87.7857H95.4054V89.9286ZM95.4054 87.25H95.9411V86.7143H97.5483V87.25H98.084V90.4643H97.5483V91H95.4054V92.0714H94.334V86.7143H95.4054V87.25ZM98.6211 87.25H99.1568V86.7143H101.835V87.25H102.371V89.3929H99.6925V89.9286H102.371V90.4643H101.835V91H99.1568V90.4643H98.6211V87.25ZM99.6925 88.3214H101.3V87.7857H99.6925V88.3214ZM105.051 87.7857H104.515V88.3214H103.98V91H102.908V86.7143H103.98V87.25H104.515V86.7143H105.587V87.25H106.122V87.7857H105.587V88.3214H105.051V87.7857ZM109.337 86.7143V85.6429H110.408V91H109.337V90.4643H108.801V91H107.194V90.4643H106.658V87.25H107.194V86.7143H109.337ZM109.337 89.9286V87.7857H107.73V89.9286H109.337ZM110.945 85.6429H112.017V86.7143H110.945V85.6429ZM110.945 87.25H112.017V91H110.945V87.25ZM112.557 87.25H113.092V86.7143H115.771V87.25H116.307V89.3929H113.628V89.9286H116.307V90.4643H115.771V91H113.092V90.4643H112.557V87.25ZM113.628 88.3214H115.235V87.7857H113.628V88.3214ZM116.844 87.25H117.379V86.1786H117.915V85.6429H118.451V87.25H119.522V88.3214H118.451V89.9286H119.522V91H117.915V90.4643H117.379V88.3214H116.844V87.25ZM120.592 91H120.057V89.9286H121.128V91.5357H120.592V91ZM120.057 91.5357H120.592V92.0714H120.057V91.5357ZM124.342 90.4643H123.807V88.8571H124.342V88.3214H126.485V87.7857H123.807V87.25H124.342V86.7143H127.021V87.25H127.557V91H126.485V90.4643H125.949V91H124.342V90.4643ZM124.878 89.9286H126.485V89.3929H124.878V89.9286ZM128.094 87.25H128.629V86.1786H129.165V85.6429H129.701V87.25H130.772V88.3214H129.701V89.9286H130.772V91H129.165V90.4643H128.629V88.3214H128.094V87.25ZM133.981 90.4643H133.445V88.8571H133.981V88.3214H136.124V87.7857H133.445V87.25H133.981V86.7143H136.66V87.25H137.195V91H136.124V90.4643H135.588V91H133.981V90.4643ZM134.517 89.9286H136.124V89.3929H134.517V89.9286ZM139.875 91H138.268V90.4643H137.732V86.7143H138.804V89.9286H140.411V86.7143H141.482V91H140.411V90.4643H139.875V91ZM144.698 89.3929H145.77V90.4643H145.234V91H142.555V90.4643H142.02V87.25H142.555V86.7143H145.234V87.25H145.77V88.3214H144.698V87.7857H143.091V89.9286H144.698V89.3929ZM146.307 87.25H146.842V86.1786H147.378V85.6429H147.914V87.25H148.985V88.3214H147.914V89.9286H148.985V91H147.378V90.4643H146.842V88.3214H146.307V87.25ZM149.52 87.25H150.055V86.7143H152.734V87.25H153.27V90.4643H152.734V91H150.055V90.4643H149.52V87.25ZM152.198 87.7857H150.591V89.9286H152.198V87.7857ZM155.949 87.7857H155.414V88.3214H154.878V91H153.807V86.7143H154.878V87.25H155.414V86.7143H156.485V87.25H157.021V87.7857H156.485V88.3214H155.949V87.7857ZM159.695 85.6429H160.767V91H159.695V85.6429ZM161.307 85.6429H162.378V86.7143H161.307V85.6429ZM161.307 87.25H162.378V91H161.307V87.25ZM162.918 91H165.597V89.9286H165.061V90.4643H163.454V89.9286H162.918V87.25H163.454V86.7143H166.668V91.5357H166.132V92.0714H163.454V91.5357H162.918V91ZM163.989 89.3929H165.597V87.7857H163.989V89.3929ZM169.348 91H167.741V90.4643H167.205V86.7143H168.277V89.9286H169.884V86.7143H170.955V91H169.884V90.4643H169.348V91ZM171.492 85.6429H172.564V91H171.492V85.6429ZM173.639 90.4643H173.104V88.8571H173.639V88.3214H175.782V87.7857H173.104V87.25H173.639V86.7143H176.318V87.25H176.854V91H175.782V90.4643H175.246V91H173.639V90.4643ZM174.175 89.9286H175.782V89.3929H174.175V89.9286ZM69.6786 100.393H70.75V101.464H70.2143V102H67.5357V101.464H67V98.25H67.5357V97.7143H70.2143V98.25H70.75V99.3214H69.6786V98.7857H68.0714V100.929H69.6786V100.393ZM71.2871 98.25H71.8228V97.7143H74.5014V98.25H75.0371V101.464H74.5014V102H71.8228V101.464H71.2871V98.25ZM73.9657 98.7857H72.3585V100.929H73.9657V98.7857ZM76.6456 98.25H77.1814V97.7143H78.7885V98.25H79.3242V102H78.2528V98.7857H76.6456V102H75.5742V97.7143H76.6456V98.25ZM82.5399 97.7143V96.6429H83.6113V102H82.5399V101.464H82.0042V102H80.397V101.464H79.8613V98.25H80.397V97.7143H82.5399ZM82.5399 100.929V98.7857H80.9328V100.929H82.5399ZM84.1484 96.6429H85.2199V97.7143H84.1484V96.6429ZM84.1484 98.25H85.2199V102H84.1484V98.25ZM86.8312 98.25H87.3669V97.7143H88.4383V98.25H89.5098V97.7143H90.5812V98.25H91.1169V102H90.0455V98.7857H88.9741V102H87.9026V98.7857H86.8312V102H85.7598V97.7143H86.8312V98.25ZM91.6484 98.25H92.1842V97.7143H94.8627V98.25H95.3984V100.393H92.7199V100.929H95.3984V101.464H94.8627V102H92.1842V101.464H91.6484V98.25ZM92.7199 99.3214H94.327V98.7857H92.7199V99.3214ZM97.007 98.25H97.5427V97.7143H99.1498V98.25H99.6855V102H98.6141V98.7857H97.007V102H95.9355V97.7143H97.007V98.25ZM100.223 98.25H100.758V97.1786H101.294V96.6429H101.83V98.25H102.901V99.3214H101.83V100.929H102.901V102H101.294V101.464H100.758V99.3214H100.223V98.25ZM105.578 102H103.971V101.464H103.436V97.7143H104.507V100.929H106.114V97.7143H107.186V102H106.114V101.464H105.578V102ZM108.794 98.25H109.33V97.7143H110.401V98.25H111.473V97.7143H112.544V98.25H113.08V102H112.008V98.7857H110.937V102H109.866V98.7857H108.794V102H107.723V97.7143H108.794V98.25ZM113.611 100.929H114.683V102H113.611V100.929ZM67 118.643H70.2143V119.179H70.75V121.857H70.2143V122.393H68.0714V124H67V118.643ZM69.6786 119.714H68.0714V121.321H69.6786V119.714ZM71.2871 120.25H71.8228V119.714H74.5014V120.25H75.0371V122.393H72.3585V122.929H75.0371V123.464H74.5014V124H71.8228V123.464H71.2871V120.25ZM72.3585 121.321H73.9657V120.786H72.3585V121.321ZM75.5742 118.643H76.6456V124H75.5742V118.643ZM77.1855 118.643H78.257V124H77.1855V118.643ZM78.7969 120.25H79.3326V119.714H82.0112V120.25H82.5469V122.393H79.8683V122.929H82.5469V123.464H82.0112V124H79.3326V123.464H78.7969V120.25ZM79.8683 121.321H81.4754V120.786H79.8683V121.321ZM84.1554 120.25H84.6911V119.714H86.2983V120.25H86.834V124H85.7626V120.786H84.1554V124H83.084V119.714H84.1554V120.25ZM87.3711 120.25H87.9068V119.179H88.4425V118.643H88.9782V120.25H90.0497V121.321H88.9782V122.929H90.0497V124H88.4425V123.464H87.9068V121.321H87.3711V120.25ZM90.584 120.25H91.1197V119.714H93.7983V120.25H94.334V122.393H91.6554V122.929H94.334V123.464H93.7983V124H91.1197V123.464H90.584V120.25ZM91.6554 121.321H93.2626V120.786H91.6554V121.321ZM95.4068 123.464H94.8711V122.929H97.014V122.393H95.4068V121.857H94.8711V120.25H95.4068V119.714H97.5497V120.25H98.0854V120.786H95.9425V121.321H97.5497V121.857H98.0854V123.464H97.5497V124H95.4068V123.464ZM102.371 119.714V125.071H101.3V123.464H100.764V124H99.1568V123.464H98.6211V120.25H99.1568V119.714H102.371ZM101.3 122.929V120.786H99.6925V122.929H101.3ZM105.051 124H103.444V123.464H102.908V119.714H103.98V122.929H105.587V119.714H106.658V124H105.587V123.464H105.051V124ZM107.195 120.25H107.731V119.714H110.41V120.25H110.945V122.393H108.267V122.929H110.945V123.464H110.41V124H107.731V123.464H107.195V120.25ZM108.267 121.321H109.874V120.786H108.267V121.321ZM114.157 123.464H113.621V122.929H115.764V122.393H114.157V121.857H113.621V120.25H114.157V119.714H116.3V120.25H116.835V120.786H114.693V121.321H116.3V121.857H116.835V123.464H116.3V124H114.157V123.464ZM117.371 118.643H118.443V119.714H117.371V118.643ZM117.371 120.25H118.443V124H117.371V120.25ZM118.982 120.25H119.518V119.179H120.054V118.643H120.59V120.25H121.661V121.321H120.59V122.929H121.661V124H120.054V123.464H119.518V121.321H118.982V120.25ZM124.87 123.464H124.334V121.857H124.87V121.321H127.013V120.786H124.334V120.25H124.87V119.714H127.548V120.25H128.084V124H127.013V123.464H126.477V124H124.87V123.464ZM125.405 122.929H127.013V122.393H125.405V122.929ZM129.693 120.25H130.228V119.714H131.3V120.25H132.371V119.714H133.443V120.25H133.978V124H132.907V120.786H131.835V124H130.764V120.786H129.693V124H128.621V119.714H129.693V120.25ZM134.51 120.25H135.045V119.714H137.724V120.25H138.26V122.393H135.581V122.929H138.26V123.464H137.724V124H135.045V123.464H134.51V120.25ZM135.581 121.321H137.188V120.786H135.581V121.321ZM138.797 120.25H139.333V119.179H139.868V118.643H140.404V120.25H141.475V121.321H140.404V122.929H141.475V124H139.868V123.464H139.333V121.321H138.797V120.25ZM145.22 120.25H145.756V119.714H146.827V120.25H147.898V119.714H148.97V120.25H149.506V124H148.434V120.786H147.363V124H146.291V120.786H145.22V124H144.148V119.714H145.22V120.25ZM150.037 118.643H151.109V119.714H150.037V118.643ZM150.037 120.25H151.109V124H150.037V120.25ZM153.787 120.25H154.323V119.179H154.859V118.643H155.394V120.25H156.466V121.321H155.394V122.929H156.466V124H154.859V123.464H154.323V121.321H153.787V120.25ZM157 120.25H157.536V119.714H160.214V120.25H160.75V122.393H158.071V122.929H160.75V123.464H160.214V124H157.536V123.464H157V120.25ZM158.071 121.321H159.679V120.786H158.071V121.321ZM162.359 120.25H162.894V119.714H163.966V120.25H165.037V119.714H166.109V120.25H166.644V124H165.573V120.786H164.501V124H163.43V120.786H162.359V124H161.287V119.714H162.359V120.25ZM168.247 122.929H169.854V120.786H168.247V122.929ZM168.247 120.25H168.783V119.714H170.39V120.25H170.926V123.464H170.39V124H168.247V125.071H167.176V119.714H168.247V120.25ZM171.463 120.25H171.999V119.714H174.677V120.25H175.213V123.464H174.677V124H171.999V123.464H171.463V120.25ZM174.141 120.786H172.534V122.929H174.141V120.786ZM177.893 120.786H177.357V121.321H176.821V124H175.75V119.714H176.821V120.25H177.357V119.714H178.429V120.25H178.964V120.786H178.429V121.321H177.893V120.786ZM180.036 124H179.5V122.929H180.571V124.536H180.036V124ZM179.5 124.536H180.036V125.071H179.5V124.536ZM183.25 120.25H183.786V119.714H186.464V120.25H187V122.393H184.321V122.929H187V123.464H186.464V124H183.786V123.464H183.25V120.25ZM184.321 121.321H185.929V120.786H184.321V121.321ZM187.537 124H190.216V122.929H189.68V123.464H188.073V122.929H187.537V120.25H188.073V119.714H191.287V124.536H190.751V125.071H188.073V124.536H187.537V124ZM188.609 122.393H190.216V120.786H188.609V122.393ZM191.824 120.25H192.36V119.714H195.039V120.25H195.574V122.393H192.896V122.929H195.574V123.464H195.039V124H192.36V123.464H191.824V120.25ZM192.896 121.321H194.503V120.786H192.896V121.321ZM196.647 123.464H196.111V122.929H198.254V122.393H196.647V121.857H196.111V120.25H196.647V119.714H198.79V120.25H199.326V120.786H197.183V121.321H198.79V121.857H199.326V123.464H198.79V124H196.647V123.464ZM199.861 120.25H200.397V119.179H200.933V118.643H201.468V120.25H202.54V121.321H201.468V122.929H202.54V124H200.933V123.464H200.397V121.321H199.861V120.25ZM203.61 123.464H203.074V121.857H203.61V121.321H205.753V120.786H203.074V120.25H203.61V119.714H206.289V120.25H206.824V124H205.753V123.464H205.217V124H203.61V123.464ZM204.146 122.929H205.753V122.393H204.146V122.929ZM207.897 123.464H207.361V122.929H209.504V122.393H207.897V121.857H207.361V120.25H207.897V119.714H210.04V120.25H210.576V120.786H208.433V121.321H210.04V121.857H210.576V123.464H210.04V124H207.897V123.464ZM70.75 130.714V136.071H69.6786V134.464H69.1429V135H67.5357V134.464H67V131.25H67.5357V130.714H70.75ZM69.6786 133.929V131.786H68.0714V133.929H69.6786ZM73.43 135H71.8228V134.464H71.2871V130.714H72.3585V133.929H73.9657V130.714H75.0371V135H73.9657V134.464H73.43V135ZM76.1099 134.464H75.5742V132.857H76.1099V132.321H78.2528V131.786H75.5742V131.25H76.1099V130.714H78.7885V131.25H79.3242V135H78.2528V134.464H77.7171V135H76.1099V134.464ZM76.6456 133.929H78.2528V133.393H76.6456V133.929ZM80.9328 131.25H81.4685V130.714H82.5399V131.25H83.6113V130.714H84.6828V131.25H85.2185V135H84.147V131.786H83.0756V135H82.0042V131.786H80.9328V135H79.8613V130.714H80.9328V131.25ZM87.8887 131.25H88.4244V130.714H91.103V131.25H91.6387V133.393H88.9601V133.929H91.6387V134.464H91.103V135H88.4244V134.464H87.8887V131.25ZM88.9601 132.321H90.5672V131.786H88.9601V132.321ZM92.1758 131.25H92.7115V130.179H93.2472V129.643H93.7829V131.25H94.8544V132.321H93.7829V133.929H94.8544V135H93.2472V134.464H92.7115V132.321H92.1758V131.25ZM95.9244 135H95.3887V133.929H96.4601V135.536H95.9244V135ZM95.3887 135.536H95.9244V136.071H95.3887V135.536ZM100.21 131.25H100.746V130.714H101.817V131.25H102.889V130.714H103.96V131.25H104.496V135H103.424V131.786H102.353V135H101.282V131.786H100.21V135H99.1387V130.714H100.21V131.25ZM105.563 134.464H105.027V132.857H105.563V132.321H107.706V131.786H105.027V131.25H105.563V130.714H108.242V131.25H108.777V135H107.706V134.464H107.17V135H105.563V134.464ZM106.099 133.929H107.706V133.393H106.099V133.929ZM109.314 133.393H109.85V132.857H110.386V132.321H109.85V131.786H109.314V130.714H110.386V131.25H110.922V131.786H111.457V131.25H111.993V130.714H113.064V131.786H112.529V132.321H111.993V132.857H112.529V133.393H113.064V135H111.993V133.929H111.457V133.393H110.922V133.929H110.386V135H109.314V133.393ZM113.602 129.643H114.673V130.714H113.602V129.643ZM113.602 131.25H114.673V135H113.602V131.25ZM116.284 131.25H116.82V130.714H117.891V131.25H118.963V130.714H120.034V131.25H120.57V135H119.499V131.786H118.427V135H117.356V131.786H116.284V135H115.213V130.714H116.284V131.25ZM123.244 135H121.637V134.464H121.102V130.714H122.173V133.929H123.78V130.714H124.852V135H123.78V134.464H123.244V135ZM125.924 134.464H125.389V133.929H127.532V133.393H125.924V132.857H125.389V131.25H125.924V130.714H128.067V131.25H128.603V131.786H126.46V132.321H128.067V132.857H128.603V134.464H128.067V135H125.924V134.464ZM131.813 134.464H131.277V133.929H133.42V133.393H131.813V132.857H131.277V131.25H131.813V130.714H133.956V131.25H134.492V131.786H132.349V132.321H133.956V132.857H134.492V134.464H133.956V135H131.813V134.464ZM135.027 131.25H135.563V130.714H138.242V131.25H138.777V133.393H136.099V133.929H138.777V134.464H138.242V135H135.563V134.464H135.027V131.25ZM136.099 132.321H137.706V131.786H136.099V132.321ZM140.386 131.25H140.922V130.714H141.993V131.25H143.064V130.714H144.136V131.25H144.672V135H143.6V131.786H142.529V135H141.457V131.786H140.386V135H139.314V130.714H140.386V131.25ZM145.203 133.929H146.275V135H145.203V133.929ZM151.096 132.857H151.632V129.643H152.703V133.393H152.167V133.929H151.632V134.464H151.096V135H150.56V134.464H150.025V133.929H149.489V133.393H148.953V129.643H150.025V132.857H150.56V133.393H151.096V132.857ZM153.24 131.25H153.776V130.714H156.455V131.25H156.99V133.393H154.312V133.929H156.99V134.464H156.455V135H153.776V134.464H153.24V131.25ZM154.312 132.321H155.919V131.786H154.312V132.321ZM158.063 134.464H157.527V133.929H159.67V133.393H158.063V132.857H157.527V131.25H158.063V130.714H160.206V131.25H160.742V131.786H158.599V132.321H160.206V132.857H160.742V134.464H160.206V135H158.063V134.464ZM161.277 131.25H161.813V130.179H162.349V129.643H162.884V131.25H163.956V132.321H162.884V133.929H163.956V135H162.349V134.464H161.813V132.321H161.277V131.25ZM164.49 129.643H165.562V130.714H164.49V129.643ZM164.49 131.25H165.562V135H164.49V131.25ZM167.173 133.929H168.78V131.786H167.173V133.929ZM167.173 131.25H167.709V130.714H169.316V131.25H169.852V134.464H169.316V135H166.102V129.643H167.173V131.25ZM172.532 135H170.924V134.464H170.389V130.714H171.46V133.929H173.067V130.714H174.139V135H173.067V134.464H172.532V135ZM174.676 129.643H175.747V135H174.676V129.643ZM178.43 135H176.823V134.464H176.287V130.714H177.359V133.929H178.966V130.714H180.037V135H178.966V134.464H178.43V135ZM181.646 131.25H182.181V130.714H183.253V131.25H184.324V130.714H185.396V131.25H185.931V135H184.86V131.786H183.789V135H182.717V131.786H181.646V135H180.574V130.714H181.646V131.25ZM188.602 131.25H189.137V130.714H191.816V131.25H192.352V133.393H189.673V133.929H192.352V134.464H191.816V135H189.137V134.464H188.602V131.25ZM189.673 132.321H191.28V131.786H189.673V132.321ZM192.889 131.25H193.424V130.179H193.96V129.643H194.496V131.25H195.567V132.321H194.496V133.929H195.567V135H193.96V134.464H193.424V132.321H192.889V131.25ZM199.312 131.25H199.847V130.714H201.455V131.25H201.99V135H200.919V131.786H199.312V135H198.24V130.714H199.312V131.25ZM202.527 129.643H203.599V130.714H202.527V129.643ZM202.527 131.25H203.599V135H202.527V131.25ZM205.21 133.929H206.817V131.786H205.21V133.929ZM205.21 131.25H205.746V130.714H207.353V131.25H207.889V134.464H207.353V135H204.139V129.643H205.21V131.25ZM209.497 131.25H210.033V130.714H211.64V131.25H212.176V135H211.104V131.786H209.497V135H208.426V129.643H209.497V131.25ZM216.994 135H215.387V134.464H214.852V130.714H215.923V133.929H217.53V130.714H218.602V135H217.53V134.464H216.994V135ZM219.139 131.25H219.674V130.179H220.21V129.643H220.746V131.25H221.817V132.321H220.746V133.929H221.817V135H220.21V134.464H219.674V132.321H219.139V131.25ZM68.0714 142.25H68.6071V141.714H69.6786V142.25H70.75V141.714H71.8214V142.25H72.3571V146H71.2857V142.786H70.2143V146H69.1429V142.786H68.0714V146H67V141.714H68.0714V142.25ZM73.4244 145.464H72.8887V143.857H73.4244V143.321H75.5672V142.786H72.8887V142.25H73.4244V141.714H76.103V142.25H76.6387V146H75.5672V145.464H75.0315V146H73.4244V145.464ZM73.9601 144.929H75.5672V144.393H73.9601V144.929ZM79.3186 146H77.7115V145.464H77.1758V141.714H78.2472V144.929H79.8544V141.714H80.9258V146H79.8544V145.464H79.3186V146ZM83.6057 142.786H83.07V143.321H82.5343V146H81.4629V141.714H82.5343V142.25H83.07V141.714H84.1415V142.25H84.6772V142.786H84.1415V143.321H83.6057V142.786ZM85.2129 140.643H86.2843V141.714H85.2129V140.643ZM85.2129 142.25H86.2843V146H85.2129V142.25ZM87.3599 145.464H86.8242V144.929H88.9671V144.393H87.3599V143.857H86.8242V142.25H87.3599V141.714H89.5028V142.25H90.0385V142.786H87.8956V143.321H89.5028V143.857H90.0385V145.464H89.5028V146H87.3599V145.464ZM94.8557 146H93.2486V145.464H92.7129V141.714H93.7843V144.929H95.3915V141.714H96.4629V146H95.3915V145.464H94.8557V146ZM97 140.643H98.0714V146H97V140.643ZM98.6113 140.643H99.6828V146H98.6113V140.643ZM100.758 145.464H100.223V143.857H100.758V143.321H102.901V142.786H100.223V142.25H100.758V141.714H103.437V142.25H103.973V146H102.901V145.464H102.366V146H100.758V145.464ZM101.294 144.929H102.901V144.393H101.294V144.929ZM105.581 142.25H106.117V141.714H107.188V142.25H108.26V141.714H109.331V142.25H109.867V146H108.795V142.786H107.724V146H106.653V142.786H105.581V146H104.51V141.714H105.581V142.25ZM113.077 144.393H114.148V145.464H113.613V146H110.934V145.464H110.398V142.25H110.934V141.714H113.613V142.25H114.148V143.321H113.077V142.786H111.47V144.929H113.077V144.393ZM114.686 142.25H115.221V141.714H117.9V142.25H118.436V145.464H117.9V146H115.221V145.464H114.686V142.25ZM117.364 142.786H115.757V144.929H117.364V142.786ZM121.116 142.786H120.58V143.321H120.044V146H118.973V141.714H120.044V142.25H120.58V141.714H121.651V142.25H122.187V142.786H121.651V143.321H121.116V142.786ZM123.794 144.929H125.401V142.786H123.794V144.929ZM123.794 142.25H124.33V141.714H125.937V142.25H126.473V145.464H125.937V146H123.794V147.071H122.723V141.714H123.794V142.25ZM127.01 142.25H127.545V141.714H130.224V142.25H130.76V144.393H128.081V144.929H130.76V145.464H130.224V146H127.545V145.464H127.01V142.25ZM128.081 143.321H129.688V142.786H128.081V143.321ZM133.44 142.786H132.904V143.321H132.368V146H131.297V141.714H132.368V142.25H132.904V141.714H133.975V142.25H134.511V142.786H133.975V143.321H133.44V142.786ZM137.186 142.25H137.721V141.714H140.4V142.25H140.936V144.393H138.257V144.929H140.936V145.464H140.4V146H137.721V145.464H137.186V142.25ZM138.257 143.321H139.864V142.786H138.257V143.321ZM141.473 146H144.151V144.929H143.616V145.464H142.008V144.929H141.473V142.25H142.008V141.714H145.223V146.536H144.687V147.071H142.008V146.536H141.473V146ZM142.544 144.393H144.151V142.786H142.544V144.393ZM145.76 142.25H146.295V141.714H148.974V142.25H149.51V144.393H146.831V144.929H149.51V145.464H148.974V146H146.295V145.464H145.76V142.25ZM146.831 143.321H148.438V142.786H146.831V143.321ZM150.583 145.464H150.047V144.929H152.19V144.393H150.583V143.857H150.047V142.25H150.583V141.714H152.725V142.25H153.261V142.786H151.118V143.321H152.725V143.857H153.261V145.464H152.725V146H150.583V145.464ZM153.797 142.25H154.333V141.179H154.868V140.643H155.404V142.25H156.475V143.321H155.404V144.929H156.475V146H154.868V145.464H154.333V143.321H153.797V142.25ZM157.545 145.464H157.01V143.857H157.545V143.321H159.688V142.786H157.01V142.25H157.545V141.714H160.224V142.25H160.76V146H159.688V145.464H159.153V146H157.545V145.464ZM158.081 144.929H159.688V144.393H158.081V144.929ZM161.833 145.464H161.297V144.929H163.44V144.393H161.833V143.857H161.297V142.25H161.833V141.714H163.975V142.25H164.511V142.786H162.368V143.321H163.975V143.857H164.511V145.464H163.975V146H161.833V145.464ZM170.936 141.714V147.071H169.864V145.464H169.328V146H167.721V145.464H167.186V142.25H167.721V141.714H170.936ZM169.864 144.929V142.786H168.257V144.929H169.864ZM173.616 146H172.008V145.464H171.473V141.714H172.544V144.929H174.151V141.714H175.223V146H174.151V145.464H173.616V146ZM175.76 140.643H176.831V141.714H175.76V140.643ZM175.76 142.25H176.831V146H175.76V142.25ZM177.907 145.464H177.371V144.929H179.514V144.393H177.907V143.857H177.371V142.25H177.907V141.714H180.05V142.25H180.585V142.786H178.443V143.321H180.05V143.857H180.585V145.464H180.05V146H177.907V145.464ZM184.331 142.25H184.867V141.714H186.474V142.25H187.01V146H185.938V142.786H184.331V146H183.26V141.714H184.331V142.25ZM187.547 142.25H188.083V141.714H190.761V142.25H191.297V145.464H190.761V146H188.083V145.464H187.547V142.25ZM190.225 142.786H188.618V144.929H190.225V142.786ZM192.905 142.25H193.441V141.714H195.048V142.25H195.584V146H194.513V142.786H192.905V146H191.834V141.714H192.905V142.25ZM198.26 140.643H199.331V146H198.26V140.643ZM199.871 140.643H200.943V141.714H199.871V140.643ZM199.871 142.25H200.943V146H199.871V142.25ZM202.554 144.929H204.161V142.786H202.554V144.929ZM202.554 142.25H203.09V141.714H204.697V142.25H205.232V145.464H204.697V146H201.482V140.643H202.554V142.25ZM205.77 142.25H206.305V141.714H208.984V142.25H209.52V144.393H206.841V144.929H209.52V145.464H208.984V146H206.305V145.464H205.77V142.25ZM206.841 143.321H208.448V142.786H206.841V143.321ZM212.199 142.786H211.664V143.321H211.128V146H210.057V141.714H211.128V142.25H211.664V141.714H212.735V142.25H213.271V142.786H212.735V143.321H212.199V142.786ZM213.807 142.25H214.342V141.714H217.021V142.25H217.557V145.464H217.021V146H214.342V145.464H213.807V142.25ZM216.485 142.786H214.878V144.929H216.485V142.786ZM218.094 144.929H219.165V146H218.094V144.929ZM68.0714 166.929H70.2143V168H67V162.643H70.2143V163.714H68.0714V164.786H69.6786V165.857H68.0714V166.929ZM70.75 164.25H71.2857V163.179H71.8214V162.643H72.3571V164.25H73.4286V165.321H72.3571V166.929H73.4286V168H71.8214V167.464H71.2857V165.321H70.75V164.25ZM73.9629 162.643H75.0343V163.714H73.9629V162.643ZM73.9629 164.25H75.0343V168H73.9629V164.25ZM76.1099 167.464H75.5742V165.857H76.1099V165.321H78.2528V164.786H75.5742V164.25H76.1099V163.714H78.7885V164.25H79.3242V168H78.2528V167.464H77.7171V168H76.1099V167.464ZM76.6456 166.929H78.2528V166.393H76.6456V166.929ZM80.9328 164.25H81.4685V163.714H82.5399V164.25H83.6113V163.714H84.6828V164.25H85.2185V168H84.147V164.786H83.0756V168H82.0042V164.786H80.9328V168H79.8613V163.714H80.9328V164.25ZM88.9601 164.25H89.4958V163.714H90.5672V164.25H91.6387V163.714H92.7101V164.25H93.2458V168H92.1744V164.786H91.103V168H90.0315V164.786H88.9601V168H87.8887V163.714H88.9601V164.25ZM94.3131 167.464H93.7773V165.857H94.3131V165.321H96.4559V164.786H93.7773V164.25H94.3131V163.714H96.9916V164.25H97.5273V168H96.4559V167.464H95.9202V168H94.3131V167.464ZM94.8488 166.929H96.4559V166.393H94.8488V166.929ZM98.0645 166.393H98.6002V165.857H99.1359V165.321H98.6002V164.786H98.0645V163.714H99.1359V164.25H99.6716V164.786H100.207V164.25H100.743V163.714H101.814V164.786H101.279V165.321H100.743V165.857H101.279V166.393H101.814V168H100.743V166.929H100.207V166.393H99.6716V166.929H99.1359V168H98.0645V166.393ZM102.352 162.643H103.423V163.714H102.352V162.643ZM102.352 164.25H103.423V168H102.352V164.25ZM105.034 164.25H105.57V163.714H106.641V164.25H107.713V163.714H108.784V164.25H109.32V168H108.249V164.786H107.177V168H106.106V164.786H105.034V168H103.963V163.714H105.034V164.25ZM111.994 168H110.387V167.464H109.852V163.714H110.923V166.929H112.53V163.714H113.602V168H112.53V167.464H111.994V168ZM114.674 167.464H114.139V166.929H116.282V166.393H114.674V165.857H114.139V164.25H114.674V163.714H116.817V164.25H117.353V164.786H115.21V165.321H116.817V165.857H117.353V167.464H116.817V168H114.674V167.464ZM122.706 163.714V162.643H123.777V168H122.706V167.464H122.17V168H120.563V167.464H120.027V164.25H120.563V163.714H122.706ZM122.706 166.929V164.786H121.099V166.929H122.706ZM124.314 162.643H125.386V163.714H124.314V162.643ZM124.314 164.25H125.386V168H124.314V164.25ZM126.461 167.464H125.926V165.857H126.461V165.321H128.604V164.786H125.926V164.25H126.461V163.714H129.14V164.25H129.676V168H128.604V167.464H128.069V168H126.461V167.464ZM126.997 166.929H128.604V166.393H126.997V166.929ZM131.284 164.25H131.82V163.714H132.891V164.25H133.963V163.714H135.034V164.25H135.57V168H134.499V164.786H133.427V168H132.356V164.786H131.284V168H130.213V163.714H131.284V164.25ZM141.99 163.714V169.071H140.919V167.464H140.383V168H138.776V167.464H138.24V164.25H138.776V163.714H141.99ZM140.919 166.929V164.786H139.312V166.929H140.919ZM144.67 168H143.063V167.464H142.527V163.714H143.599V166.929H145.206V163.714H146.277V168H145.206V167.464H144.67V168ZM146.814 162.643H147.886V163.714H146.814V162.643ZM146.814 164.25H147.886V168H146.814V164.25ZM148.961 167.464H148.426V166.929H150.569V166.393H148.961V165.857H148.426V164.25H148.961V163.714H151.104V164.25H151.64V164.786H149.497V165.321H151.104V165.857H151.64V167.464H151.104V168H148.961V167.464ZM154.85 167.464H154.314V165.857H154.85V165.321H156.993V164.786H154.314V164.25H154.85V163.714H157.529V164.25H158.064V168H156.993V167.464H156.457V168H154.85V167.464ZM155.386 166.929H156.993V166.393H155.386V166.929ZM158.602 162.643H159.673V168H158.602V162.643ZM160.213 162.643H161.284V163.714H160.213V162.643ZM160.213 164.25H161.284V168H160.213V164.25ZM165.574 163.714V169.071H164.503V167.464H163.967V168H162.36V167.464H161.824V164.25H162.36V163.714H165.574ZM164.503 166.929V164.786H162.896V166.929H164.503ZM168.254 168H166.647V167.464H166.111V163.714H167.183V166.929H168.79V163.714H169.861V168H168.79V167.464H168.254V168ZM170.398 164.25H170.934V163.714H173.613V164.25H174.148V166.393H171.47V166.929H174.148V167.464H173.613V168H170.934V167.464H170.398V164.25ZM171.47 165.321H173.077V164.786H171.47V165.321ZM174.686 164.25H175.221V163.179H175.757V162.643H176.293V164.25H177.364V165.321H176.293V166.929H177.364V168H175.757V167.464H175.221V165.321H174.686V164.25ZM180.037 162.643H181.109V168H180.037V162.643ZM182.184 167.464H181.648V165.857H182.184V165.321H184.327V164.786H181.648V164.25H182.184V163.714H184.863V164.25H185.398V168H184.327V167.464H183.791V168H182.184V167.464ZM182.72 166.929H184.327V166.393H182.72V166.929ZM188.614 166.393H189.686V167.464H189.15V168H186.471V167.464H185.936V164.25H186.471V163.714H189.15V164.25H189.686V165.321H188.614V164.786H187.007V166.929H188.614V166.393ZM190.223 162.643H191.294V163.714H190.223V162.643ZM190.223 164.25H191.294V168H190.223V164.25ZM192.905 164.25H193.441V163.714H195.048V164.25H195.584V168H194.513V164.786H192.905V168H191.834V163.714H192.905V164.25ZM196.121 162.643H197.193V163.714H196.121V162.643ZM196.121 164.25H197.193V168H196.121V164.25ZM198.268 167.464H197.732V165.857H198.268V165.321H200.411V164.786H197.732V164.25H198.268V163.714H200.947V164.25H201.482V168H200.411V167.464H199.875V168H198.268V167.464ZM198.804 166.929H200.411V166.393H198.804V166.929ZM202.02 166.929H203.091V168H202.02V166.929ZM67 173.643H70.2143V174.179H70.75V176.857H70.2143V177.393H68.0714V179H67V173.643ZM69.6786 174.714H68.0714V176.321H69.6786V174.714ZM72.3585 175.25H72.8943V174.714H74.5014V175.25H75.0371V179H73.9657V175.786H72.3585V179H71.2871V173.643H72.3585V175.25ZM76.1099 178.464H75.5742V176.857H76.1099V176.321H78.2528V175.786H75.5742V175.25H76.1099V174.714H78.7885V175.25H79.3242V179H78.2528V178.464H77.7171V179H76.1099V178.464ZM76.6456 177.929H78.2528V177.393H76.6456V177.929ZM80.397 178.464H79.8613V177.929H82.0042V177.393H80.397V176.857H79.8613V175.25H80.397V174.714H82.5399V175.25H83.0756V175.786H80.9328V176.321H82.5399V176.857H83.0756V178.464H82.5399V179H80.397V178.464ZM83.6113 175.25H84.147V174.714H86.8256V175.25H87.3613V177.393H84.6828V177.929H87.3613V178.464H86.8256V179H84.147V178.464H83.6113V175.25ZM84.6828 176.321H86.2899V175.786H84.6828V176.321ZM87.8984 173.643H88.9699V179H87.8984V173.643ZM89.5098 173.643H90.5812V179H89.5098V173.643ZM93.264 179H91.6568V178.464H91.1211V174.714H92.1925V177.929H93.7997V174.714H94.8711V179H93.7997V178.464H93.264V179ZM95.9439 178.464H95.4082V177.929H97.5511V177.393H95.9439V176.857H95.4082V175.25H95.9439V174.714H98.0868V175.25H98.6225V175.786H96.4796V176.321H98.0868V176.857H98.6225V178.464H98.0868V179H95.9439V178.464ZM101.297 175.25H101.833V174.714H104.511V175.25H105.047V177.393H102.368V177.929H105.047V178.464H104.511V179H101.833V178.464H101.297V175.25ZM102.368 176.321H103.975V175.786H102.368V176.321ZM105.584 179H108.263V177.929H107.727V178.464H106.12V177.929H105.584V175.25H106.12V174.714H109.334V179.536H108.798V180.071H106.12V179.536H105.584V179ZM106.655 177.393H108.263V175.786H106.655V177.393ZM109.871 175.25H110.407V174.714H113.085V175.25H113.621V177.393H110.943V177.929H113.621V178.464H113.085V179H110.407V178.464H109.871V175.25ZM110.943 176.321H112.55V175.786H110.943V176.321ZM114.158 175.25H114.694V174.179H115.23V173.643H115.765V175.25H116.837V176.321H115.765V177.929H116.837V179H115.23V178.464H114.694V176.321H114.158V175.25ZM123.26 174.714V180.071H122.188V178.464H121.653V179H120.045V178.464H119.51V175.25H120.045V174.714H123.26ZM122.188 177.929V175.786H120.581V177.929H122.188ZM125.94 179H124.333V178.464H123.797V174.714H124.868V177.929H126.475V174.714H127.547V179H126.475V178.464H125.94V179ZM128.62 178.464H128.084V176.857H128.62V176.321H130.763V175.786H128.084V175.25H128.62V174.714H131.298V175.25H131.834V179H130.763V178.464H130.227V179H128.62V178.464ZM129.155 177.929H130.763V177.393H129.155V177.929ZM133.443 175.25H133.978V174.714H135.05V175.25H136.121V174.714H137.193V175.25H137.728V179H136.657V175.786H135.585V179H134.514V175.786H133.443V179H132.371V174.714H133.443V175.25ZM140.398 173.643H141.47V174.714H140.398V173.643ZM140.398 175.25H141.47V179H140.398V175.25ZM142.545 178.464H142.01V176.857H142.545V176.321H144.688V175.786H142.01V175.25H142.545V174.714H145.224V175.25H145.76V179H144.688V178.464H144.153V179H142.545V178.464ZM143.081 177.929H144.688V177.393H143.081V177.929ZM148.975 177.393H150.047V178.464H149.511V179H146.833V178.464H146.297V175.25H146.833V174.714H149.511V175.25H150.047V176.321H148.975V175.786H147.368V177.929H148.975V177.393ZM152.727 179H151.12V178.464H150.584V174.714H151.655V177.929H153.263V174.714H154.334V179H153.263V178.464H152.727V179ZM154.871 173.643H155.943V179H154.871V173.643ZM156.482 173.643H157.554V174.714H156.482V173.643ZM156.482 175.25H157.554V179H156.482V175.25ZM158.629 178.464H158.094V177.929H160.237V177.393H158.629V176.857H158.094V175.25H158.629V174.714H160.772V175.25H161.308V175.786H159.165V176.321H160.772V176.857H161.308V178.464H160.772V179H158.629V178.464ZM165.054 175.25H165.59V174.714H167.197V175.25H167.732V179H166.661V175.786H165.054V179H163.982V174.714H165.054V175.25ZM168.27 173.643H169.341V174.714H168.27V173.643ZM168.27 175.25H169.341V179H168.27V175.25ZM170.417 178.464H169.881V177.929H172.024V177.393H170.417V176.857H169.881V175.25H170.417V174.714H172.559V175.25H173.095V175.786H170.952V176.321H172.559V176.857H173.095V178.464H172.559V179H170.417V178.464ZM173.631 173.643H174.702V179H173.631V173.643ZM177.381 175.25H177.917V174.179H178.452V173.643H180.059V174.714H178.988V175.25H180.059V176.321H178.988V179H177.917V176.321H177.381V175.25ZM181.129 178.464H180.594V176.857H181.129V176.321H183.272V175.786H180.594V175.25H181.129V174.714H183.808V175.25H184.344V179H183.272V178.464H182.737V179H181.129V178.464ZM181.665 177.929H183.272V177.393H181.665V177.929ZM187.559 177.393H188.631V178.464H188.095V179H185.417V178.464H184.881V175.25H185.417V174.714H188.095V175.25H188.631V176.321H187.559V175.786H185.952V177.929H187.559V177.393ZM189.168 173.643H190.239V174.714H189.168V173.643ZM189.168 175.25H190.239V179H189.168V175.25ZM190.779 173.643H191.851V179H190.779V173.643ZM192.391 173.643H193.462V174.714H192.391V173.643ZM192.391 175.25H193.462V179H192.391V175.25ZM194.538 178.464H194.002V177.929H196.145V177.393H194.538V176.857H194.002V175.25H194.538V174.714H196.681V175.25H197.216V175.786H195.073V176.321H196.681V176.857H197.216V178.464H196.681V179H194.538V178.464ZM197.752 173.643H198.823V174.714H197.752V173.643ZM197.752 175.25H198.823V179H197.752V175.25ZM199.899 178.464H199.363V177.929H201.506V177.393H199.899V176.857H199.363V175.25H199.899V174.714H202.042V175.25H202.578V175.786H200.435V176.321H202.042V176.857H202.578V178.464H202.042V179H199.899V178.464ZM67.5357 189.464H67V187.857H67.5357V187.321H69.6786V186.786H67V186.25H67.5357V185.714H70.2143V186.25H70.75V190H69.6786V189.464H69.1429V190H67.5357V189.464ZM68.0714 188.929H69.6786V188.393H68.0714V188.929ZM73.43 190H71.8228V189.464H71.2871V185.714H72.3585V188.929H73.9657V185.714H75.0371V190H73.9657V189.464H73.43V190ZM78.2528 188.393H79.3242V189.464H78.7885V190H76.1099V189.464H75.5742V186.25H76.1099V185.714H78.7885V186.25H79.3242V187.321H78.2528V186.786H76.6456V188.929H78.2528V188.393ZM79.8613 186.25H80.397V185.179H80.9328V184.643H81.4685V186.25H82.5399V187.321H81.4685V188.929H82.5399V190H80.9328V189.464H80.397V187.321H79.8613V186.25ZM83.0742 186.25H83.6099V185.714H86.2885V186.25H86.8242V189.464H86.2885V190H83.6099V189.464H83.0742V186.25ZM85.7528 186.786H84.1456V188.929H85.7528V186.786ZM89.5042 186.786H88.9685V187.321H88.4328V190H87.3613V185.714H88.4328V186.25H88.9685V185.714H90.0399V186.25H90.5756V186.786H90.0399V187.321H89.5042V186.786ZM93.7857 189.464H93.25V187.857H93.7857V187.321H95.9286V186.786H93.25V186.25H93.7857V185.714H96.4643V186.25H97V190H95.9286V189.464H95.3929V190H93.7857V189.464ZM94.3214 188.929H95.9286V188.393H94.3214V188.929ZM100.747 188.929H100.211V188.393H99.6758V185.714H100.747V187.857H101.283V188.393H101.819V187.857H102.354V185.714H103.426V188.393H102.89V188.929H102.354V189.464H101.819V190H101.283V189.464H100.747V188.929ZM103.963 186.25H104.499V185.714H107.177V186.25H107.713V188.393H105.034V188.929H107.713V189.464H107.177V190H104.499V189.464H103.963V186.25ZM105.034 187.321H106.641V186.786H105.034V187.321ZM108.25 184.643H109.321V190H108.25V184.643ZM112 186.25H112.536V185.714H115.214V186.25H115.75V189.464H115.214V190H112.536V189.464H112V186.25ZM114.679 186.786H113.071V188.929H114.679V186.786ZM118.966 185.714V184.643H120.037V190H118.966V189.464H118.43V190H116.823V189.464H116.287V186.25H116.823V185.714H118.966ZM118.966 188.929V186.786H117.359V188.929H118.966ZM120.574 184.643H121.646V185.714H120.574V184.643ZM120.574 186.25H121.646V190H120.574V186.25ZM122.186 186.25H122.721V185.714H125.4V186.25H125.936V189.464H125.4V190H122.721V189.464H122.186V186.25ZM124.864 186.786H123.257V188.929H124.864V186.786ZM126.473 188.929H127.544V190H126.473V188.929ZM130.223 184.643H133.437V185.179H133.973V187.857H133.437V188.393H131.294V190H130.223V184.643ZM132.901 185.714H131.294V187.321H132.901V185.714ZM136.653 186.786H136.117V187.321H135.581V190H134.51V185.714H135.581V186.25H136.117V185.714H137.188V186.25H137.724V186.786H137.188V187.321H136.653V186.786ZM138.795 189.464H138.26V187.857H138.795V187.321H140.938V186.786H138.26V186.25H138.795V185.714H141.474V186.25H142.01V190H140.938V189.464H140.403V190H138.795V189.464ZM139.331 188.929H140.938V188.393H139.331V188.929ZM142.547 186.25H143.083V185.714H145.761V186.25H146.297V188.393H143.618V188.929H146.297V189.464H145.761V190H143.083V189.464H142.547V186.25ZM143.618 187.321H145.225V186.786H143.618V187.321ZM147.37 189.464H146.834V188.929H148.977V188.393H147.37V187.857H146.834V186.25H147.37V185.714H149.513V186.25H150.048V186.786H147.905V187.321H149.513V187.857H150.048V189.464H149.513V190H147.37V189.464ZM150.584 186.25H151.12V185.714H153.798V186.25H154.334V188.393H151.655V188.929H154.334V189.464H153.798V190H151.12V189.464H150.584V186.25ZM151.655 187.321H153.263V186.786H151.655V187.321ZM155.943 186.25H156.478V185.714H158.085V186.25H158.621V190H157.55V186.786H155.943V190H154.871V185.714H155.943V186.25ZM159.158 186.25H159.694V185.179H160.23V184.643H160.765V186.25H161.837V187.321H160.765V188.929H161.837V190H160.23V189.464H159.694V187.321H159.158V186.25ZM164.51 186.25H165.045V185.179H165.581V184.643H166.117V186.25H167.188V187.321H166.117V188.929H167.188V190H165.581V189.464H165.045V187.321H164.51V186.25ZM167.723 184.643H168.794V185.714H167.723V184.643ZM167.723 186.25H168.794V190H167.723V186.25ZM170.405 186.25H170.941V185.714H172.548V186.25H173.084V190H172.013V186.786H170.405V190H169.334V185.714H170.405V186.25ZM176.3 188.393H177.371V189.464H176.835V190H174.157V189.464H173.621V186.25H174.157V185.714H176.835V186.25H177.371V187.321H176.3V186.786H174.693V188.929H176.3V188.393ZM177.908 184.643H178.98V185.714H177.908V184.643ZM177.908 186.25H178.98V190H177.908V186.25ZM182.198 185.714V184.643H183.27V190H182.198V189.464H181.662V190H180.055V189.464H179.52V186.25H180.055V185.714H182.198ZM182.198 188.929V186.786H180.591V188.929H182.198ZM185.949 190H184.342V189.464H183.807V185.714H184.878V188.929H186.485V185.714H187.557V190H186.485V189.464H185.949V190ZM189.165 186.25H189.701V185.714H191.308V186.25H191.844V190H190.772V186.786H189.165V190H188.094V185.714H189.165V186.25ZM192.381 186.25H192.917V185.179H193.452V184.643H193.988V186.25H195.059V187.321H193.988V188.929H195.059V190H193.452V189.464H192.917V187.321H192.381V186.25ZM196.129 190H195.594V188.929H196.665V190.536H196.129V190ZM195.594 190.536H196.129V191.071H195.594V190.536ZM199.344 186.25H199.879V185.179H200.415V184.643H200.951V186.25H202.022V187.321H200.951V188.929H202.022V190H200.415V189.464H199.879V187.321H199.344V186.25ZM204.699 190H203.092V189.464H202.557V185.714H203.628V188.929H205.235V185.714H206.307V190H205.235V189.464H204.699V190ZM208.987 186.786H208.451V187.321H207.915V190H206.844V185.714H207.915V186.25H208.451V185.714H209.522V186.25H210.058V186.786H209.522V187.321H208.987V186.786ZM211.665 188.929H213.272V186.786H211.665V188.929ZM211.665 186.25H212.201V185.714H213.808V186.25H214.344V189.464H213.808V190H211.665V191.071H210.594V185.714H211.665V186.25ZM214.881 184.643H215.952V185.714H214.881V184.643ZM214.881 186.25H215.952V190H214.881V186.25ZM217.028 189.464H216.492V188.929H218.635V188.393H217.028V187.857H216.492V186.25H217.028V185.714H219.171V186.25H219.706V186.786H217.564V187.321H219.171V187.857H219.706V189.464H219.171V190H217.028V189.464ZM67 195.643H68.0714V196.714H67V195.643ZM67 197.25H68.0714V201H67V197.25ZM69.6828 197.25H70.2185V196.714H71.8256V197.25H72.3613V201H71.2899V197.786H69.6828V201H68.6113V196.714H69.6828V197.25ZM77.7157 199.393H78.7871V200.464H78.2514V201H75.5728V200.464H75.0371V197.25H75.5728V196.714H78.2514V197.25H78.7871V198.321H77.7157V197.786H76.1085V199.929H77.7157V199.393ZM79.3242 197.25H79.8599V196.714H82.5385V197.25H83.0742V200.464H82.5385V201H79.8599V200.464H79.3242V197.25ZM82.0028 197.786H80.3956V199.929H82.0028V197.786ZM84.6828 197.25H85.2185V196.714H86.8256V197.25H87.3613V201H86.2899V197.786H84.6828V201H83.6113V196.714H84.6828V197.25ZM88.9699 199.929H88.4342V199.393H87.8984V196.714H88.9699V198.857H89.5056V199.393H90.0413V198.857H90.577V196.714H91.6484V199.393H91.1127V199.929H90.577V200.464H90.0413V201H89.5056V200.464H88.9699V199.929ZM92.7213 200.464H92.1855V198.857H92.7213V198.321H94.8641V197.786H92.1855V197.25H92.7213V196.714H95.3998V197.25H95.9355V201H94.8641V200.464H94.3284V201H92.7213V200.464ZM93.257 199.929H94.8641V199.393H93.257V199.929ZM96.4727 195.643H97.5441V201H96.4727V195.643ZM98.084 195.643H99.1554V201H98.084V195.643ZM99.6953 195.643H100.767V196.714H99.6953V195.643ZM99.6953 197.25H100.767V201H99.6953V197.25ZM101.842 200.464H101.307V199.929H103.449V199.393H101.842V198.857H101.307V197.25H101.842V196.714H103.985V197.25H104.521V197.786H102.378V198.321H103.985V198.857H104.521V200.464H103.985V201H101.842V200.464ZM108.267 199.929H107.731V199.393H107.195V196.714H108.267V198.857H108.802V199.393H109.338V198.857H109.874V196.714H110.945V199.393H110.41V199.929H109.874V200.464H109.338V201H108.802V200.464H108.267V199.929ZM112.018 200.464H111.482V198.857H112.018V198.321H114.161V197.786H111.482V197.25H112.018V196.714H114.697V197.25H115.232V201H114.161V200.464H113.625V201H112.018V200.464ZM112.554 199.929H114.161V199.393H112.554V199.929ZM117.912 197.786H117.377V198.321H116.841V201H115.77V196.714H116.841V197.25H117.377V196.714H118.448V197.25H118.984V197.786H118.448V198.321H117.912V197.786ZM119.52 195.643H120.591V196.714H119.52V195.643ZM119.52 197.25H120.591V201H119.52V197.25ZM123.274 201H121.667V200.464H121.131V196.714H122.202V199.929H123.809V196.714H124.881V201H123.809V200.464H123.274V201ZM125.954 200.464H125.418V199.929H127.561V199.393H125.954V198.857H125.418V197.25H125.954V196.714H128.097V197.25H128.632V197.786H126.489V198.321H128.097V198.857H128.632V200.464H128.097V201H125.954V200.464ZM129.704 201H129.168V199.929H130.239V201.536H129.704V201ZM129.168 201.536H129.704V202.071H129.168V201.536ZM132.918 195.643H133.989V201H132.918V195.643ZM134.529 195.643H135.601V196.714H134.529V195.643ZM134.529 197.25H135.601V201H134.529V197.25ZM136.141 201H138.819V199.929H138.283V200.464H136.676V199.929H136.141V197.25H136.676V196.714H139.891V201.536H139.355V202.071H136.676V201.536H136.141V201ZM137.212 199.393H138.819V197.786H137.212V199.393ZM142.571 201H140.963V200.464H140.428V196.714H141.499V199.929H143.106V196.714H144.178V201H143.106V200.464H142.571V201ZM144.715 195.643H145.786V201H144.715V195.643ZM146.862 200.464H146.326V198.857H146.862V198.321H149.005V197.786H146.326V197.25H146.862V196.714H149.54V197.25H150.076V201H149.005V200.464H148.469V201H146.862V200.464ZM147.398 199.929H149.005V199.393H147.398V199.929ZM153.288 200.464H152.752V198.857H153.288V198.321H155.431V197.786H152.752V197.25H153.288V196.714H155.966V197.25H156.502V201H155.431V200.464H154.895V201H153.288V200.464ZM153.823 199.929H155.431V199.393H153.823V199.929ZM158.11 197.25H158.646V196.714H160.253V197.25H160.789V201H159.718V197.786H158.11V201H157.039V196.714H158.11V197.25ZM161.326 197.25H161.862V196.179H162.398V195.643H162.933V197.25H164.005V198.321H162.933V199.929H164.005V201H162.398V200.464H161.862V198.321H161.326V197.25ZM164.539 197.25H165.075V196.714H167.753V197.25H168.289V199.393H165.61V199.929H168.289V200.464H167.753V201H165.075V200.464H164.539V197.25ZM165.61 198.321H167.218V197.786H165.61V198.321ZM172.036 199.929H173.643V197.786H172.036V199.929ZM172.036 197.25H172.572V196.714H174.179V197.25H174.715V200.464H174.179V201H172.036V202.071H170.965V196.714H172.036V197.25ZM175.252 195.643H176.323V201H175.252V195.643ZM177.399 200.464H176.863V198.857H177.399V198.321H179.542V197.786H176.863V197.25H177.399V196.714H180.078V197.25H180.613V201H179.542V200.464H179.006V201H177.399V200.464ZM177.935 199.929H179.542V199.393H177.935V199.929ZM183.829 199.393H184.9V200.464H184.365V201H181.686V200.464H181.15V197.25H181.686V196.714H184.365V197.25H184.9V198.321H183.829V197.786H182.222V199.929H183.829V199.393ZM185.438 197.25H185.973V196.714H188.652V197.25H189.188V199.393H186.509V199.929H189.188V200.464H188.652V201H185.973V200.464H185.438V197.25ZM186.509 198.321H188.116V197.786H186.509V198.321ZM191.867 197.786H191.332V198.321H190.796V201H189.725V196.714H190.796V197.25H191.332V196.714H192.403V197.25H192.939V197.786H192.403V198.321H191.867V197.786ZM194.01 200.464H193.475V198.857H194.01V198.321H196.153V197.786H193.475V197.25H194.01V196.714H196.689V197.25H197.225V201H196.153V200.464H195.617V201H194.01V200.464ZM194.546 199.929H196.153V199.393H194.546V199.929ZM197.762 197.25H198.297V196.179H198.833V195.643H199.369V197.25H200.44V198.321H199.369V199.929H200.44V201H198.833V200.464H198.297V198.321H197.762V197.25ZM203.113 197.25H203.649V196.179H204.185V195.643H204.72V197.25H205.792V198.321H204.72V199.929H205.792V201H204.185V200.464H203.649V198.321H203.113V197.25ZM206.326 197.25H206.862V196.714H209.54V197.25H210.076V199.393H207.398V199.929H210.076V200.464H209.54V201H206.862V200.464H206.326V197.25ZM207.398 198.321H209.005V197.786H207.398V198.321ZM210.613 195.643H211.685V201H210.613V195.643ZM212.225 195.643H213.296V201H212.225V195.643ZM215.979 201H214.372V200.464H213.836V196.714H214.907V199.929H216.515V196.714H217.586V201H216.515V200.464H215.979V201ZM218.659 200.464H218.123V199.929H220.266V199.393H218.659V198.857H218.123V197.25H218.659V196.714H220.802V197.25H221.337V197.786H219.194V198.321H220.802V198.857H221.337V200.464H220.802V201H218.659V200.464ZM222.409 201H221.873V199.929H222.944V201.536H222.409V201ZM221.873 201.536H222.409V202.071H221.873V201.536ZM67.5357 211.464H67V210.929H69.1429V210.393H67.5357V209.857H67V208.25H67.5357V207.714H69.6786V208.25H70.2143V208.786H68.0714V209.321H69.6786V209.857H70.2143V211.464H69.6786V212H67.5357V211.464ZM70.75 206.643H71.8214V207.714H70.75V206.643ZM70.75 208.25H71.8214V212H70.75V208.25ZM72.3613 208.25H72.897V207.179H73.4328V206.643H73.9685V208.25H75.0399V209.321H73.9685V210.929H75.0399V212H73.4328V211.464H72.897V209.321H72.3613V208.25ZM78.2486 211.464H77.7129V209.857H78.2486V209.321H80.3915V208.786H77.7129V208.25H78.2486V207.714H80.9272V208.25H81.4629V212H80.3915V211.464H79.8557V212H78.2486V211.464ZM78.7843 210.929H80.3915V210.393H78.7843V210.929ZM83.0714 208.25H83.6071V207.714H84.6786V208.25H85.75V207.714H86.8214V208.25H87.3571V212H86.2857V208.786H85.2143V212H84.1429V208.786H83.0714V212H82V207.714H83.0714V208.25ZM87.8887 208.25H88.4244V207.714H91.103V208.25H91.6387V210.393H88.9601V210.929H91.6387V211.464H91.103V212H88.4244V211.464H87.8887V208.25ZM88.9601 209.321H90.5672V208.786H88.9601V209.321ZM92.1758 208.25H92.7115V207.179H93.2472V206.643H93.7829V208.25H94.8544V209.321H93.7829V210.929H94.8544V212H93.2472V211.464H92.7115V209.321H92.1758V208.25ZM99.6702 208.786H99.1345V209.321H98.5988V212H97.5273V207.714H98.5988V208.25H99.1345V207.714H100.206V208.25H100.742V208.786H100.206V209.321H99.6702V208.786ZM103.42 212H101.813V211.464H101.277V207.714H102.349V210.929H103.956V207.714H105.027V212H103.956V211.464H103.42V212ZM105.564 208.25H106.1V207.179H106.636V206.643H107.172V208.25H108.243V209.321H107.172V210.929H108.243V212H106.636V211.464H106.1V209.321H105.564V208.25ZM110.92 208.786H110.384V209.321H109.849V212H108.777V207.714H109.849V208.25H110.384V207.714H111.456V208.25H111.992V208.786H111.456V209.321H110.92V208.786ZM114.67 212H113.063V211.464H112.527V207.714H113.599V210.929H115.206V207.714H116.277V212H115.206V211.464H114.67V212ZM117.886 208.25H118.422V207.714H119.493V208.25H120.564V207.714H121.636V208.25H122.172V212H121.1V208.786H120.029V212H118.957V208.786H117.886V212H116.814V207.714H117.886V208.25ZM124.842 206.643H125.913V207.714H124.842V206.643ZM124.842 208.25H125.913V212H124.842V208.25ZM127.525 210.929H129.132V208.786H127.525V210.929ZM127.525 208.25H128.06V207.714H129.667V208.25H130.203V211.464H129.667V212H127.525V213.071H126.453V207.714H127.525V208.25ZM131.276 211.464H130.74V210.929H132.883V210.393H131.276V209.857H130.74V208.25H131.276V207.714H133.419V208.25H133.955V208.786H131.812V209.321H133.419V209.857H133.955V211.464H133.419V212H131.276V211.464ZM136.633 212H135.026V211.464H134.49V207.714H135.562V210.929H137.169V207.714H138.24V212H137.169V211.464H136.633V212ZM139.849 208.25H140.384V207.714H141.456V208.25H142.527V207.714H143.599V208.25H144.134V212H143.063V208.786H141.992V212H140.92V208.786H139.849V212H138.777V207.714H139.849V208.25ZM147.34 211.464H146.805V209.857H147.34V209.321H149.483V208.786H146.805V208.25H147.34V207.714H150.019V208.25H150.555V212H149.483V211.464H148.948V212H147.34V211.464ZM147.876 210.929H149.483V210.393H147.876V210.929ZM152.163 208.25H152.699V207.714H154.306V208.25H154.842V212H153.77V208.786H152.163V212H151.092V207.714H152.163V208.25ZM155.379 208.25H155.915V207.179H156.45V206.643H156.986V208.25H158.057V209.321H156.986V210.929H158.057V212H156.45V211.464H155.915V209.321H155.379V208.25ZM158.592 208.25H159.128V207.714H161.806V208.25H162.342V210.393H159.663V210.929H162.342V211.464H161.806V212H159.128V211.464H158.592V208.25ZM159.663 209.321H161.27V208.786H159.663V209.321ZM165.553 211.464H165.018V209.857H165.553V209.321H167.696V208.786H165.018V208.25H165.553V207.714H168.232V208.25H168.768V212H167.696V211.464H167.16V212H165.553V211.464ZM166.089 210.929H167.696V210.393H166.089V210.929ZM169.305 208.25H169.84V207.179H170.376V206.643H170.912V208.25H171.983V209.321H170.912V210.929H171.983V212H170.376V211.464H169.84V209.321H169.305V208.25ZM176.799 208.786H176.263V209.321H175.728V212H174.656V207.714H175.728V208.25H176.263V207.714H177.335V208.25H177.871V208.786H177.335V209.321H176.799V208.786ZM178.406 206.643H179.478V207.714H178.406V206.643ZM178.406 208.25H179.478V212H178.406V208.25ZM180.553 211.464H180.018V210.929H182.16V210.393H180.553V209.857H180.018V208.25H180.553V207.714H182.696V208.25H183.232V208.786H181.089V209.321H182.696V209.857H183.232V211.464H182.696V212H180.553V211.464ZM185.91 212H184.303V211.464H183.768V207.714H184.839V210.929H186.446V207.714H187.518V212H186.446V211.464H185.91V212ZM188.59 211.464H188.055V210.929H190.198V210.393H188.59V209.857H188.055V208.25H188.59V207.714H190.733V208.25H191.269V208.786H189.126V209.321H190.733V209.857H191.269V211.464H190.733V212H188.59V211.464ZM191.805 210.929H192.876V212H191.805V210.929ZM69.1429 232.393H69.6786V228.643H70.75V233.464H70.2143V234H67.5357V233.464H67V228.643H68.0714V232.393H68.6071V232.929H69.1429V232.393ZM71.2871 230.25H71.8228V229.179H72.3585V228.643H72.8943V230.25H73.9657V231.321H72.8943V232.929H73.9657V234H72.3585V233.464H71.8228V231.321H71.2871V230.25ZM77.7101 232.929H77.1744V232.393H76.6387V229.714H77.7101V231.857H78.2458V232.393H78.7815V231.857H79.3172V229.714H80.3887V232.393H79.853V232.929H79.3172V233.464H78.7815V234H78.2458V233.464H77.7101V232.929ZM80.9258 230.25H81.4615V229.714H84.1401V230.25H84.6758V232.393H81.9972V232.929H84.6758V233.464H84.1401V234H81.4615V233.464H80.9258V230.25ZM81.9972 231.321H83.6044V230.786H81.9972V231.321ZM86.2843 230.25H86.82V229.714H88.4272V230.25H88.9629V234H87.8915V230.786H86.2843V234H85.2129V229.714H86.2843V230.25ZM89.5 230.25H90.0357V229.714H92.7143V230.25H93.25V232.393H90.5714V232.929H93.25V233.464H92.7143V234H90.0357V233.464H89.5V230.25ZM90.5714 231.321H92.1786V230.786H90.5714V231.321ZM94.8585 230.25H95.3943V229.714H97.0014V230.25H97.5371V234H96.4657V230.786H94.8585V234H93.7871V229.714H94.8585V230.25ZM98.6099 233.464H98.0742V231.857H98.6099V231.321H100.753V230.786H98.0742V230.25H98.6099V229.714H101.289V230.25H101.824V234H100.753V233.464H100.217V234H98.6099V233.464ZM99.1456 232.929H100.753V232.393H99.1456V232.929ZM102.361 230.25H102.897V229.179H103.433V228.643H103.968V230.25H105.04V231.321H103.968V232.929H105.04V234H103.433V233.464H102.897V231.321H102.361V230.25ZM105.574 228.643H106.646V229.714H105.574V228.643ZM105.574 230.25H106.646V234H105.574V230.25ZM107.721 233.464H107.186V232.929H109.328V232.393H107.721V231.857H107.186V230.25H107.721V229.714H109.864V230.25H110.4V230.786H108.257V231.321H109.864V231.857H110.4V233.464H109.864V234H107.721V233.464ZM111.471 234H110.936V232.929H112.007V234.536H111.471V234ZM110.936 234.536H111.471V235.071H110.936V234.536ZM115.757 230.25H116.293V229.714H117.364V230.25H118.436V229.714H119.507V230.25H120.043V234H118.971V230.786H117.9V234H116.828V230.786H115.757V234H114.686V229.714H115.757V230.25ZM121.11 233.464H120.574V231.857H121.11V231.321H123.253V230.786H120.574V230.25H121.11V229.714H123.789V230.25H124.324V234H123.253V233.464H122.717V234H121.11V233.464ZM121.646 232.929H123.253V232.393H121.646V232.929ZM124.861 234H127.54V232.929H127.004V233.464H125.397V232.929H124.861V230.25H125.397V229.714H128.611V234.536H128.076V235.071H125.397V234.536H124.861V234ZM125.933 232.393H127.54V230.786H125.933V232.393ZM130.22 230.25H130.756V229.714H132.363V230.25H132.898V234H131.827V230.786H130.22V234H129.148V229.714H130.22V230.25ZM133.971 233.464H133.436V231.857H133.971V231.321H136.114V230.786H133.436V230.25H133.971V229.714H136.65V230.25H137.186V234H136.114V233.464H135.578V234H133.971V233.464ZM134.507 232.929H136.114V232.393H134.507V232.929ZM140.397 233.464H139.861V231.857H140.397V231.321H142.54V230.786H139.861V230.25H140.397V229.714H143.076V230.25H143.611V234H142.54V233.464H142.004V234H140.397V233.464ZM140.933 232.929H142.54V232.393H140.933V232.929ZM146.823 233.464H146.287V231.857H146.823V231.321H148.966V230.786H146.287V230.25H146.823V229.714H149.501V230.25H150.037V234H148.966V233.464H148.43V234H146.823V233.464ZM147.359 232.929H148.966V232.393H147.359V232.929ZM152.717 234H151.11V233.464H150.574V229.714H151.646V232.929H153.253V229.714H154.324V234H153.253V233.464H152.717V234ZM157.54 232.393H158.611V233.464H158.076V234H155.397V233.464H154.861V230.25H155.397V229.714H158.076V230.25H158.611V231.321H157.54V230.786H155.933V232.929H157.54V232.393ZM159.148 230.25H159.684V229.179H160.22V228.643H160.756V230.25H161.827V231.321H160.756V232.929H161.827V234H160.22V233.464H159.684V231.321H159.148V230.25ZM162.361 230.25H162.897V229.714H165.576V230.25H166.111V233.464H165.576V234H162.897V233.464H162.361V230.25ZM165.04 230.786H163.433V232.929H165.04V230.786ZM168.791 230.786H168.256V231.321H167.72V234H166.648V229.714H167.72V230.25H168.256V229.714H169.327V230.25H169.863V230.786H169.327V231.321H168.791V230.786ZM173.609 230.25H174.144V229.714H175.216V230.25H176.287V229.714H177.359V230.25H177.894V234H176.823V230.786H175.751V234H174.68V230.786H173.609V234H172.537V229.714H173.609V230.25ZM178.426 230.25H178.961V229.714H181.64V230.25H182.176V233.464H181.64V234H178.961V233.464H178.426V230.25ZM181.104 230.786H179.497V232.929H181.104V230.786ZM182.713 228.643H183.784V234H182.713V228.643ZM184.324 230.25H184.86V229.714H187.539V230.25H188.074V232.393H185.396V232.929H188.074V233.464H187.539V234H184.86V233.464H184.324V230.25ZM185.396 231.321H187.003V230.786H185.396V231.321ZM189.147 233.464H188.611V232.929H190.754V232.393H189.147V231.857H188.611V230.25H189.147V229.714H191.29V230.25H191.826V230.786H189.683V231.321H191.29V231.857H191.826V233.464H191.29V234H189.147V233.464ZM192.361 230.25H192.897V229.179H193.433V228.643H193.968V230.25H195.04V231.321H193.968V232.929H195.04V234H193.433V233.464H192.897V231.321H192.361V230.25ZM195.574 228.643H196.646V229.714H195.574V228.643ZM195.574 230.25H196.646V234H195.574V230.25ZM197.186 230.25H197.721V229.714H200.4V230.25H200.936V232.393H198.257V232.929H200.936V233.464H200.4V234H197.721V233.464H197.186V230.25ZM198.257 231.321H199.864V230.786H198.257V231.321ZM202.008 234H201.473V232.929H202.544V234.536H202.008V234ZM201.473 234.536H202.008V235.071H201.473V234.536ZM206.294 230.25H206.83V229.714H208.437V230.25H208.973V234H207.901V230.786H206.294V234H205.223V229.714H206.294V230.25ZM209.51 228.643H210.581V229.714H209.51V228.643ZM209.51 230.25H210.581V234H209.51V230.25ZM211.657 233.464H211.121V232.929H213.264V232.393H211.657V231.857H211.121V230.25H211.657V229.714H213.8V230.25H214.335V230.786H212.193V231.321H213.8V231.857H214.335V233.464H213.8V234H211.657V233.464ZM214.871 228.643H215.943V234H214.871V228.643ZM67 241.25H67.5357V240.714H70.2143V241.25H70.75V243.393H68.0714V243.929H70.75V244.464H70.2143V245H67.5357V244.464H67V241.25ZM68.0714 242.321H69.6786V241.786H68.0714V242.321ZM71.2871 239.643H72.3585V245H71.2871V239.643ZM72.8984 239.643H73.9699V240.714H72.8984V239.643ZM72.8984 241.25H73.9699V245H72.8984V241.25ZM74.5098 241.25H75.0455V240.179H75.5812V239.643H76.1169V241.25H77.1883V242.321H76.1169V243.929H77.1883V245H75.5812V244.464H75.0455V242.321H74.5098V241.25ZM80.9328 243.929H80.397V243.393H79.8613V240.714H80.9328V242.857H81.4685V243.393H82.0042V242.857H82.5399V240.714H83.6113V243.393H83.0756V243.929H82.5399V244.464H82.0042V245H81.4685V244.464H80.9328V243.929ZM84.1484 241.25H84.6842V240.714H87.3627V241.25H87.8984V243.393H85.2199V243.929H87.8984V244.464H87.3627V245H84.6842V244.464H84.1484V241.25ZM85.2199 242.321H86.827V241.786H85.2199V242.321ZM89.507 241.25H90.0427V240.714H91.6498V241.25H92.1855V245H91.1141V241.786H89.507V245H88.4355V240.714H89.507V241.25ZM92.7227 241.25H93.2584V240.714H95.9369V241.25H96.4727V243.393H93.7941V243.929H96.4727V244.464H95.9369V245H93.2584V244.464H92.7227V241.25ZM93.7941 242.321H95.4012V241.786H93.7941V242.321ZM98.0812 241.25H98.6169V240.714H100.224V241.25H100.76V245H99.6883V241.786H98.0812V245H97.0098V240.714H98.0812V241.25ZM101.833 244.464H101.297V242.857H101.833V242.321H103.975V241.786H101.297V241.25H101.833V240.714H104.511V241.25H105.047V245H103.975V244.464H103.44V245H101.833V244.464ZM102.368 243.929H103.975V243.393H102.368V243.929ZM105.584 241.25H106.12V240.179H106.655V239.643H107.191V241.25H108.263V242.321H107.191V243.929H108.263V245H106.655V244.464H106.12V242.321H105.584V241.25ZM108.797 239.643H109.868V240.714H108.797V239.643ZM108.797 241.25H109.868V245H108.797V241.25ZM110.944 244.464H110.408V243.929H112.551V243.393H110.944V242.857H110.408V241.25H110.944V240.714H113.087V241.25H113.622V241.786H111.48V242.321H113.087V242.857H113.622V244.464H113.087V245H110.944V244.464ZM118.44 245H116.833V244.464H116.297V240.714H117.368V243.929H118.975V240.714H120.047V245H118.975V244.464H118.44V245ZM122.727 241.786H122.191V242.321H121.655V245H120.584V240.714H121.655V241.25H122.191V240.714H123.263V241.25H123.798V241.786H123.263V242.321H122.727V241.786ZM125.405 241.25H125.941V240.714H127.548V241.25H128.084V245H127.013V241.786H125.405V245H124.334V240.714H125.405V241.25ZM129.157 244.464H128.621V242.857H129.157V242.321H131.3V241.786H128.621V241.25H129.157V240.714H131.835V241.25H132.371V245H131.3V244.464H130.764V245H129.157V244.464ZM129.693 243.929H131.3V243.393H129.693V243.929ZM133.444 245H132.908V243.929H133.98V245.536H133.444V245ZM132.908 245.536H133.444V246.071H132.908V245.536ZM136.658 241.25H137.194V240.714H139.872V241.25H140.408V243.393H137.73V243.929H140.408V244.464H139.872V245H137.194V244.464H136.658V241.25ZM137.73 242.321H139.337V241.786H137.73V242.321ZM143.088 245H141.481V244.464H140.945V240.714H142.017V243.929H143.624V240.714H144.695V245H143.624V244.464H143.088V245ZM147.371 241.25H147.907V240.714H150.585V241.25H151.121V243.393H148.443V243.929H151.121V244.464H150.585V245H147.907V244.464H147.371V241.25ZM148.443 242.321H150.05V241.786H148.443V242.321ZM151.658 245H154.337V243.929H153.801V244.464H152.194V243.929H151.658V241.25H152.194V240.714H155.408V245.536H154.872V246.071H152.194V245.536H151.658V245ZM152.73 243.393H154.337V241.786H152.73V243.393ZM155.945 241.25H156.481V240.714H159.16V241.25H159.695V243.393H157.017V243.929H159.695V244.464H159.16V245H156.481V244.464H155.945V241.25ZM157.017 242.321H158.624V241.786H157.017V242.321ZM160.768 244.464H160.232V243.929H162.375V243.393H160.768V242.857H160.232V241.25H160.768V240.714H162.911V241.25H163.447V241.786H161.304V242.321H162.911V242.857H163.447V244.464H162.911V245H160.768V244.464ZM163.982 241.25H164.518V240.179H165.054V239.643H165.59V241.25H166.661V242.321H165.59V243.929H166.661V245H165.054V244.464H164.518V242.321H163.982V241.25ZM167.731 244.464H167.195V242.857H167.731V242.321H169.874V241.786H167.195V241.25H167.731V240.714H170.41V241.25H170.945V245H169.874V244.464H169.338V245H167.731V244.464ZM168.267 243.929H169.874V243.393H168.267V243.929ZM172.018 244.464H171.482V243.929H173.625V243.393H172.018V242.857H171.482V241.25H172.018V240.714H174.161V241.25H174.697V241.786H172.554V242.321H174.161V242.857H174.697V244.464H174.161V245H172.018V244.464ZM177.371 241.25H177.907V240.179H178.443V239.643H178.978V241.25H180.05V242.321H178.978V243.929H180.05V245H178.443V244.464H177.907V242.321H177.371V241.25ZM180.584 241.25H181.12V240.714H183.798V241.25H184.334V243.393H181.655V243.929H184.334V244.464H183.798V245H181.12V244.464H180.584V241.25ZM181.655 242.321H183.263V241.786H181.655V242.321ZM184.871 239.643H185.943V245H184.871V239.643ZM186.482 239.643H187.554V245H186.482V239.643ZM190.237 245H188.629V244.464H188.094V240.714H189.165V243.929H190.772V240.714H191.844V245H190.772V244.464H190.237V245ZM192.917 244.464H192.381V243.929H194.524V243.393H192.917V242.857H192.381V241.25H192.917V240.714H195.059V241.25H195.595V241.786H193.452V242.321H195.059V242.857H195.595V244.464H195.059V245H192.917V244.464ZM198.27 241.25H198.805V240.714H201.484V241.25H202.02V243.393H199.341V243.929H202.02V244.464H201.484V245H198.805V244.464H198.27V241.25ZM199.341 242.321H200.948V241.786H199.341V242.321ZM202.557 243.393H203.092V242.857H203.628V242.321H203.092V241.786H202.557V240.714H203.628V241.25H204.164V241.786H204.699V241.25H205.235V240.714H206.307V241.786H205.771V242.321H205.235V242.857H205.771V243.393H206.307V245H205.235V243.929H204.699V243.393H204.164V243.929H203.628V245H202.557V243.393ZM68.0714 254.929H67.5357V254.393H67V251.714H68.0714V253.857H68.6071V254.393H69.1429V253.857H69.6786V251.714H70.75V254.393H70.2143V254.929H69.6786V255.464H69.1429V256H68.6071V255.464H68.0714V254.929ZM71.2871 250.643H72.3585V251.714H71.2871V250.643ZM71.2871 252.25H72.3585V256H71.2871V252.25ZM72.8984 252.25H73.4342V251.179H73.9699V250.643H74.5056V252.25H75.577V253.321H74.5056V254.929H75.577V256H73.9699V255.464H73.4342V253.321H72.8984V252.25ZM76.647 255.464H76.1113V253.857H76.647V253.321H78.7899V252.786H76.1113V252.25H76.647V251.714H79.3256V252.25H79.8613V256H78.7899V255.464H78.2542V256H76.647V255.464ZM77.1828 254.929H78.7899V254.393H77.1828V254.929ZM80.3984 252.25H80.9342V251.714H83.6127V252.25H84.1484V254.393H81.4699V254.929H84.1484V255.464H83.6127V256H80.9342V255.464H80.3984V252.25ZM81.4699 253.321H83.077V252.786H81.4699V253.321ZM87.8956 254.929H89.5028V252.786H87.8956V254.929ZM87.8956 252.25H88.4314V251.714H90.0385V252.25H90.5742V255.464H90.0385V256H87.8956V257.071H86.8242V251.714H87.8956V252.25ZM93.2542 256H91.647V255.464H91.1113V251.714H92.1828V254.929H93.7899V251.714H94.8613V256H93.7899V255.464H93.2542V256ZM97.5413 252.786H97.0056V253.321H96.4699V256H95.3984V251.714H96.4699V252.25H97.0056V251.714H98.077V252.25H98.6127V252.786H98.077V253.321H97.5413V252.786ZM101.291 256H99.6842V255.464H99.1484V251.714H100.22V254.929H101.827V251.714H102.898V256H101.827V255.464H101.291V256ZM103.971 255.464H103.436V254.929H105.578V254.393H103.971V253.857H103.436V252.25H103.971V251.714H106.114V252.25H106.65V252.786H104.507V253.321H106.114V253.857H106.65V255.464H106.114V256H103.971V255.464ZM107.186 254.929H108.257V256H107.186V254.929ZM110.936 254.393H112.007V254.929H113.614V253.857H111.471V253.321H110.936V251.179H111.471V250.643H114.15V251.179H114.686V252.25H113.614V251.714H112.007V252.786H114.15V253.321H114.686V255.464H114.15V256H111.471V255.464H110.936V254.393ZM115.223 252.25H115.758V251.714H118.437V252.25H118.973V254.393H116.294V254.929H118.973V255.464H118.437V256H115.758V255.464H115.223V252.25ZM116.294 253.321H117.901V252.786H116.294V253.321ZM122.188 251.714V250.643H123.26V256H122.188V255.464H121.653V256H120.045V255.464H119.51V252.25H120.045V251.714H122.188ZM122.188 254.929V252.786H120.581V254.929H122.188Z" fill="black"/>
</svg>
